<mxfile host="app.diagrams.net" modified="2023-10-02T21:38:15.629Z" agent="Mozilla/5.0 (Windows NT 10.0; Win64; x64) AppleWebKit/537.36 (KHTML, like Gecko) Chrome/117.0.0.0 Safari/537.36" version="22.0.1" etag="aTBkFRb40d76eSr5LzA1" type="github">
  <diagram name="Page-1" id="CRVYOWQrbE0ftQAD-L7y">
    <mxGraphModel>
      <root>
        <mxCell id="0" />
        <mxCell id="1" parent="0" />
      </root>
    </mxGraphModel>
  </diagram>
</mxfile>
